<svg width="1024" height="1024" viewBox="0 0 1024 1024" xmlns="http://www.w3.org/2000/svg">
  <!-- Glass Fold app icon (Aurora). Trio of glass tiles. Generated by scripts/gen-icon.mjs. -->
  <defs><radialGradient id="bg" cx="30%" cy="20%" r="130%"><stop offset="0" stop-color="#1E2142"/><stop offset="1" stop-color="#0A0B14"/></radialGradient><linearGradient id="gloss" x1="0" y1="0" x2="0.75" y2="1"><stop offset="0" stop-color="#fff" stop-opacity="0.34"/><stop offset="0.45" stop-color="#fff" stop-opacity="0"/></linearGradient><filter id="glow" x="-60%" y="-60%" width="220%" height="220%"><feGaussianBlur stdDeviation="30"/></filter><linearGradient id="g_violet" x1="0" y1="0" x2="0" y2="1"><stop offset="0" stop-color="#C3A6FF"/><stop offset="1" stop-color="#7A4FE6"/></linearGradient><linearGradient id="g_coral" x1="0" y1="0" x2="0" y2="1"><stop offset="0" stop-color="#FF85A0"/><stop offset="1" stop-color="#E83E62"/></linearGradient><linearGradient id="g_teal" x1="0" y1="0" x2="0" y2="1"><stop offset="0" stop-color="#6FE9DF"/><stop offset="1" stop-color="#25B8AE"/></linearGradient></defs>
  <rect width="1024" height="1024" rx="230" fill="url(#bg)"/><rect x="2" y="2" width="1020" height="1020" rx="228" fill="none" stroke="#2A2E55" stroke-width="3"/>
  <g transform="rotate(-8 560 590)">
    <rect x="410" y="440" width="300" height="300" rx="60" fill="#8A5CF0" opacity="0.4" filter="url(#glow)"/>
    <rect x="410" y="440" width="300" height="300" rx="60" fill="url(#g_violet)"/>
    <rect x="410" y="440" width="300" height="300" rx="60" fill="url(#gloss)"/>
    <rect x="413" y="443" width="294" height="294" rx="58" fill="none" stroke="#fff" stroke-opacity="0.18" stroke-width="4"/>
  </g><g transform="rotate(6 620 410)">
    <rect x="495" y="285" width="250" height="250" rx="50" fill="#3CDCD2" opacity="0.4" filter="url(#glow)"/>
    <rect x="495" y="285" width="250" height="250" rx="50" fill="url(#g_teal)"/>
    <rect x="495" y="285" width="250" height="250" rx="50" fill="url(#gloss)"/>
    <rect x="498" y="288" width="244" height="244" rx="48" fill="none" stroke="#fff" stroke-opacity="0.18" stroke-width="4"/>
  </g><g transform="rotate(-3 400 470)">
    <rect x="265" y="335" width="270" height="270" rx="54" fill="#FF5A78" opacity="0.4" filter="url(#glow)"/>
    <rect x="265" y="335" width="270" height="270" rx="54" fill="url(#g_coral)"/>
    <rect x="265" y="335" width="270" height="270" rx="54" fill="url(#gloss)"/>
    <rect x="268" y="338" width="264" height="264" rx="52" fill="none" stroke="#fff" stroke-opacity="0.18" stroke-width="4"/>
  </g>
</svg>
